<mxfile host="65bd71144e">
    <diagram id="eRSgj1qXR7dHZXu-lRIz" name="第 1 页">
        <mxGraphModel dx="791" dy="495" grid="1" gridSize="10" guides="1" tooltips="1" connect="1" arrows="1" fold="1" page="1" pageScale="1" pageWidth="827" pageHeight="1169" background="#ffffff" math="0" shadow="0">
            <root>
                <mxCell id="0"/>
                <mxCell id="1" parent="0"/>
                <mxCell id="q3Mf1EkechfPd-j5QihB-1" value="&lt;font color=&quot;#000000&quot;&gt;&lt;b&gt;数据预处理流程&lt;/b&gt;&lt;/font&gt;" style="text;html=1;strokeColor=none;fillColor=none;align=center;verticalAlign=middle;whiteSpace=wrap;rounded=0;" parent="1" vertex="1">
                    <mxGeometry x="275" y="262" width="120" height="30" as="geometry"/>
                </mxCell>
                <mxCell id="q3Mf1EkechfPd-j5QihB-3" value="&lt;font color=&quot;#000000&quot;&gt;&lt;b&gt;数据采集流程&lt;/b&gt;&lt;/font&gt;" style="text;html=1;strokeColor=none;fillColor=none;align=center;verticalAlign=middle;whiteSpace=wrap;rounded=0;" parent="1" vertex="1">
                    <mxGeometry x="260" y="30" width="140" height="30" as="geometry"/>
                </mxCell>
                <mxCell id="q3Mf1EkechfPd-j5QihB-4" value="" style="rounded=0;whiteSpace=wrap;html=1;" parent="1" vertex="1">
                    <mxGeometry x="50" y="60" width="80" height="30" as="geometry"/>
                </mxCell>
                <mxCell id="q3Mf1EkechfPd-j5QihB-5" value="&lt;font style=&quot;font-size: 6px;&quot;&gt;日志服务器&lt;/font&gt;" style="text;html=1;strokeColor=none;fillColor=none;align=center;verticalAlign=middle;whiteSpace=wrap;rounded=0;" parent="1" vertex="1">
                    <mxGeometry x="57" y="64" width="60" height="20" as="geometry"/>
                </mxCell>
                <mxCell id="q3Mf1EkechfPd-j5QihB-6" value="" style="rounded=0;whiteSpace=wrap;html=1;" parent="1" vertex="1">
                    <mxGeometry x="50" y="100" width="80" height="30" as="geometry"/>
                </mxCell>
                <mxCell id="q3Mf1EkechfPd-j5QihB-7" value="&lt;font style=&quot;font-size: 6px;&quot;&gt;日志服务器&lt;/font&gt;" style="text;html=1;strokeColor=none;fillColor=none;align=center;verticalAlign=middle;whiteSpace=wrap;rounded=0;" parent="1" vertex="1">
                    <mxGeometry x="57" y="104" width="60" height="20" as="geometry"/>
                </mxCell>
                <mxCell id="q3Mf1EkechfPd-j5QihB-8" value="" style="rounded=0;whiteSpace=wrap;html=1;" parent="1" vertex="1">
                    <mxGeometry x="50" y="140" width="80" height="30" as="geometry"/>
                </mxCell>
                <mxCell id="q3Mf1EkechfPd-j5QihB-9" value="&lt;font style=&quot;font-size: 6px;&quot;&gt;日志服务器&lt;/font&gt;" style="text;html=1;strokeColor=none;fillColor=none;align=center;verticalAlign=middle;whiteSpace=wrap;rounded=0;" parent="1" vertex="1">
                    <mxGeometry x="57" y="144" width="60" height="20" as="geometry"/>
                </mxCell>
                <mxCell id="q3Mf1EkechfPd-j5QihB-11" value="" style="shape=curlyBracket;whiteSpace=wrap;html=1;rounded=1;flipH=1;fontSize=6;size=0.5;strokeColor=#000000;" parent="1" vertex="1">
                    <mxGeometry x="140" y="60" width="10" height="110" as="geometry"/>
                </mxCell>
                <mxCell id="q3Mf1EkechfPd-j5QihB-12" value="" style="endArrow=classic;html=1;rounded=0;fontSize=6;exitX=0.1;exitY=0.5;exitDx=0;exitDy=0;exitPerimeter=0;strokeColor=#000000;" parent="1" source="q3Mf1EkechfPd-j5QihB-11" edge="1">
                    <mxGeometry width="50" height="50" relative="1" as="geometry">
                        <mxPoint x="360" y="130" as="sourcePoint"/>
                        <mxPoint x="210" y="115" as="targetPoint"/>
                    </mxGeometry>
                </mxCell>
                <mxCell id="q3Mf1EkechfPd-j5QihB-13" value="" style="rounded=0;whiteSpace=wrap;html=1;fontSize=6;" parent="1" vertex="1">
                    <mxGeometry x="210" y="97.5" width="80" height="35" as="geometry"/>
                </mxCell>
                <mxCell id="q3Mf1EkechfPd-j5QihB-14" value="HDFS" style="text;html=1;strokeColor=none;fillColor=none;align=center;verticalAlign=middle;whiteSpace=wrap;rounded=0;fontSize=6;" parent="1" vertex="1">
                    <mxGeometry x="220" y="100" width="60" height="30" as="geometry"/>
                </mxCell>
                <mxCell id="q3Mf1EkechfPd-j5QihB-15" value="" style="endArrow=classic;html=1;rounded=0;fontSize=6;exitX=1;exitY=0.5;exitDx=0;exitDy=0;fontColor=#000000;strokeColor=#000000;" parent="1" source="q3Mf1EkechfPd-j5QihB-13" edge="1">
                    <mxGeometry width="50" height="50" relative="1" as="geometry">
                        <mxPoint x="360" y="130" as="sourcePoint"/>
                        <mxPoint x="370" y="115" as="targetPoint"/>
                    </mxGeometry>
                </mxCell>
                <mxCell id="q3Mf1EkechfPd-j5QihB-16" value="" style="ellipse;whiteSpace=wrap;html=1;fontSize=6;" parent="1" vertex="1">
                    <mxGeometry x="369" y="92.5" width="90" height="45" as="geometry"/>
                </mxCell>
                <mxCell id="q3Mf1EkechfPd-j5QihB-17" value="&lt;font style=&quot;font-size: 10px;&quot;&gt;ODS贴源层&lt;/font&gt;" style="text;html=1;strokeColor=none;fillColor=none;align=center;verticalAlign=middle;whiteSpace=wrap;rounded=0;fontSize=6;" parent="1" vertex="1">
                    <mxGeometry x="384" y="100" width="60" height="30" as="geometry"/>
                </mxCell>
                <mxCell id="q3Mf1EkechfPd-j5QihB-18" value="&lt;font style=&quot;font-size: 8px&quot; color=&quot;#000000&quot;&gt;去重&lt;/font&gt;" style="text;html=1;strokeColor=none;fillColor=none;align=center;verticalAlign=middle;whiteSpace=wrap;rounded=0;fontSize=10;" parent="1" vertex="1">
                    <mxGeometry x="290" y="107.5" width="60" height="30" as="geometry"/>
                </mxCell>
                <mxCell id="q3Mf1EkechfPd-j5QihB-19" value="&lt;div&gt;&lt;div class=&quot;old-record-id-doxcnkOukews2g8Q02dUrg37wBf&quot;&gt;&lt;font style=&quot;font-size: 6px&quot;&gt;tmp.cool_app_raw&lt;/font&gt;&lt;/div&gt;&lt;/div&gt;&lt;font size=&quot;3&quot;&gt;&lt;span class=&quot;lark-record-clipboard&quot;&gt;&lt;/span&gt;&lt;/font&gt;" style="text;whiteSpace=wrap;html=1;fontSize=8;fontColor=#000000;" parent="1" vertex="1">
                    <mxGeometry x="294" y="94" width="100" height="30" as="geometry"/>
                </mxCell>
                <mxCell id="q3Mf1EkechfPd-j5QihB-20" value="&lt;div data-docx-has-block-data=&quot;false&quot; data-page-id=&quot;doxcnuD2HVpImhVT7HSv2yvoO0c&quot;&gt;&lt;div class=&quot;old-record-id-doxcnU2EiuSoc2swGYRnmc21qle&quot;&gt;ods.cool_app_log&lt;/div&gt;&lt;/div&gt;&lt;span class=&quot;lark-record-clipboard&quot; data-lark-record-format=&quot;docx/text&quot; data-lark-record-data=&quot;{&amp;quot;rootId&amp;quot;:&amp;quot;doxcnuD2HVpImhVT7HSv2yvoO0c&amp;quot;,&amp;quot;text&amp;quot;:{&amp;quot;initialAttributedTexts&amp;quot;:{&amp;quot;text&amp;quot;:{&amp;quot;0&amp;quot;:&amp;quot;ods.cool_app_log&amp;quot;},&amp;quot;attribs&amp;quot;:{&amp;quot;0&amp;quot;:&amp;quot;*0*1+g&amp;quot;}},&amp;quot;apool&amp;quot;:{&amp;quot;numToAttrib&amp;quot;:{&amp;quot;0&amp;quot;:[&amp;quot;author&amp;quot;,&amp;quot;7079000554864705564&amp;quot;],&amp;quot;1&amp;quot;:[&amp;quot;bold&amp;quot;,&amp;quot;true&amp;quot;]},&amp;quot;nextNum&amp;quot;:2}},&amp;quot;type&amp;quot;:&amp;quot;text&amp;quot;,&amp;quot;referenceRecordMap&amp;quot;:{},&amp;quot;extra&amp;quot;:{&amp;quot;mention_page_title&amp;quot;:{},&amp;quot;external_mention_url&amp;quot;:{}},&amp;quot;isCut&amp;quot;:false}&quot;&gt;&lt;/span&gt;" style="text;whiteSpace=wrap;html=1;fontSize=6;" parent="1" vertex="1">
                    <mxGeometry x="391" y="116.5" width="80" height="20" as="geometry"/>
                </mxCell>
                <mxCell id="q3Mf1EkechfPd-j5QihB-21" value="/doe/applogs/${dt}/..." style="text;html=1;strokeColor=none;fillColor=none;align=center;verticalAlign=middle;whiteSpace=wrap;rounded=0;fontSize=6;" parent="1" vertex="1">
                    <mxGeometry x="220" y="110" width="70" height="30" as="geometry"/>
                </mxCell>
                <mxCell id="q3Mf1EkechfPd-j5QihB-22" value="&lt;font style=&quot;font-size: 10px&quot; color=&quot;#000000&quot;&gt;Flume&lt;/font&gt;" style="text;html=1;align=center;verticalAlign=middle;whiteSpace=wrap;rounded=0;fontSize=6;" parent="1" vertex="1">
                    <mxGeometry x="144" y="91" width="60" height="30" as="geometry"/>
                </mxCell>
                <mxCell id="q3Mf1EkechfPd-j5QihB-24" value="" style="ellipse;whiteSpace=wrap;html=1;fontSize=6;" parent="1" vertex="1">
                    <mxGeometry x="38" y="312" width="90" height="45" as="geometry"/>
                </mxCell>
                <mxCell id="q3Mf1EkechfPd-j5QihB-25" value="&lt;font style=&quot;font-size: 10px;&quot;&gt;ODS贴源层&lt;/font&gt;" style="text;html=1;strokeColor=none;fillColor=none;align=center;verticalAlign=middle;whiteSpace=wrap;rounded=0;fontSize=6;" parent="1" vertex="1">
                    <mxGeometry x="53" y="319.5" width="60" height="30" as="geometry"/>
                </mxCell>
                <mxCell id="q3Mf1EkechfPd-j5QihB-26" value="&lt;div data-docx-has-block-data=&quot;false&quot; data-page-id=&quot;doxcnuD2HVpImhVT7HSv2yvoO0c&quot;&gt;&lt;div class=&quot;old-record-id-doxcnU2EiuSoc2swGYRnmc21qle&quot;&gt;ods.cool_app_log&lt;/div&gt;&lt;/div&gt;&lt;span class=&quot;lark-record-clipboard&quot; data-lark-record-format=&quot;docx/text&quot; data-lark-record-data=&quot;{&amp;quot;rootId&amp;quot;:&amp;quot;doxcnuD2HVpImhVT7HSv2yvoO0c&amp;quot;,&amp;quot;text&amp;quot;:{&amp;quot;initialAttributedTexts&amp;quot;:{&amp;quot;text&amp;quot;:{&amp;quot;0&amp;quot;:&amp;quot;ods.cool_app_log&amp;quot;},&amp;quot;attribs&amp;quot;:{&amp;quot;0&amp;quot;:&amp;quot;*0*1+g&amp;quot;}},&amp;quot;apool&amp;quot;:{&amp;quot;numToAttrib&amp;quot;:{&amp;quot;0&amp;quot;:[&amp;quot;author&amp;quot;,&amp;quot;7079000554864705564&amp;quot;],&amp;quot;1&amp;quot;:[&amp;quot;bold&amp;quot;,&amp;quot;true&amp;quot;]},&amp;quot;nextNum&amp;quot;:2}},&amp;quot;type&amp;quot;:&amp;quot;text&amp;quot;,&amp;quot;referenceRecordMap&amp;quot;:{},&amp;quot;extra&amp;quot;:{&amp;quot;mention_page_title&amp;quot;:{},&amp;quot;external_mention_url&amp;quot;:{}},&amp;quot;isCut&amp;quot;:false}&quot;&gt;&lt;/span&gt;" style="text;whiteSpace=wrap;html=1;fontSize=6;" parent="1" vertex="1">
                    <mxGeometry x="60" y="336" width="80" height="20" as="geometry"/>
                </mxCell>
                <mxCell id="q3Mf1EkechfPd-j5QihB-27" value="" style="endArrow=classic;html=1;rounded=0;fontSize=10;exitX=1;exitY=0.5;exitDx=0;exitDy=0;strokeColor=#000000;" parent="1" source="q3Mf1EkechfPd-j5QihB-24" target="q3Mf1EkechfPd-j5QihB-28" edge="1">
                    <mxGeometry width="50" height="50" relative="1" as="geometry">
                        <mxPoint x="338" y="232" as="sourcePoint"/>
                        <mxPoint x="388" y="182" as="targetPoint"/>
                    </mxGeometry>
                </mxCell>
                <mxCell id="q3Mf1EkechfPd-j5QihB-28" value="" style="rounded=0;whiteSpace=wrap;html=1;fontSize=10;direction=west;fillColor=#808080;" parent="1" vertex="1">
                    <mxGeometry x="187" y="324.88" width="70" height="21.25" as="geometry"/>
                </mxCell>
                <mxCell id="q3Mf1EkechfPd-j5QihB-29" value="&lt;font style=&quot;font-size: 9px;&quot;&gt;session分割&lt;/font&gt;" style="text;html=1;strokeColor=none;fillColor=none;align=center;verticalAlign=middle;whiteSpace=wrap;rounded=0;fontSize=10;" parent="1" vertex="1">
                    <mxGeometry x="193" y="319.51" width="60" height="30" as="geometry"/>
                </mxCell>
                <mxCell id="q3Mf1EkechfPd-j5QihB-31" value="&lt;font style=&quot;font-size: 6px&quot;&gt;&lt;font color=&quot;#000000&quot;&gt;清洗过滤&lt;br&gt;数据解析&lt;/font&gt;&lt;br&gt;&lt;/font&gt;" style="text;html=1;strokeColor=none;fillColor=none;align=center;verticalAlign=middle;whiteSpace=wrap;rounded=0;fontSize=9;" parent="1" vertex="1">
                    <mxGeometry x="120.5" y="317.14" width="60" height="30" as="geometry"/>
                </mxCell>
                <mxCell id="q3Mf1EkechfPd-j5QihB-38" value="" style="rounded=0;whiteSpace=wrap;html=1;fontSize=10;direction=west;fillColor=#666666;" parent="1" vertex="1">
                    <mxGeometry x="297" y="324.88" width="70" height="21.25" as="geometry"/>
                </mxCell>
                <mxCell id="q3Mf1EkechfPd-j5QihB-39" value="&lt;font size=&quot;1&quot;&gt;地理位置回补&lt;/font&gt;" style="text;html=1;strokeColor=none;fillColor=none;align=center;verticalAlign=middle;whiteSpace=wrap;rounded=0;fontSize=10;" parent="1" vertex="1">
                    <mxGeometry x="302" y="319.5" width="66" height="32.5" as="geometry"/>
                </mxCell>
                <mxCell id="q3Mf1EkechfPd-j5QihB-40" value="" style="endArrow=classic;html=1;rounded=0;fontSize=6;exitX=0;exitY=0.5;exitDx=0;exitDy=0;entryX=1;entryY=0.5;entryDx=0;entryDy=0;strokeColor=#000000;" parent="1" source="q3Mf1EkechfPd-j5QihB-28" target="q3Mf1EkechfPd-j5QihB-38" edge="1">
                    <mxGeometry width="50" height="50" relative="1" as="geometry">
                        <mxPoint x="338" y="302" as="sourcePoint"/>
                        <mxPoint x="388" y="252" as="targetPoint"/>
                    </mxGeometry>
                </mxCell>
                <mxCell id="q3Mf1EkechfPd-j5QihB-41" value="" style="endArrow=classic;html=1;rounded=0;fontSize=6;strokeColor=#808080;" parent="1" edge="1">
                    <mxGeometry width="50" height="50" relative="1" as="geometry">
                        <mxPoint x="222" y="346" as="sourcePoint"/>
                        <mxPoint x="222" y="376" as="targetPoint"/>
                    </mxGeometry>
                </mxCell>
                <mxCell id="q3Mf1EkechfPd-j5QihB-42" value="" style="rounded=1;whiteSpace=wrap;html=1;fontSize=6;fillColor=#CCCCCC;" parent="1" vertex="1">
                    <mxGeometry x="190" y="377" width="78" height="20" as="geometry"/>
                </mxCell>
                <mxCell id="q3Mf1EkechfPd-j5QihB-43" value="&lt;font color=&quot;#000000&quot;&gt;tmp.&lt;span&gt;tmp_app_split_session&lt;/span&gt;&lt;/font&gt;&lt;span class=&quot;lark-record-clipboard&quot;&gt;&lt;/span&gt;" style="text;html=1;strokeColor=none;fillColor=none;align=center;verticalAlign=middle;whiteSpace=wrap;rounded=0;fontSize=6;" parent="1" vertex="1">
                    <mxGeometry x="184.5" y="372" width="89" height="30" as="geometry"/>
                </mxCell>
                <mxCell id="q3Mf1EkechfPd-j5QihB-44" value="" style="endArrow=classic;html=1;rounded=0;fontSize=6;exitX=0.871;exitY=0.333;exitDx=0;exitDy=0;entryX=1;entryY=0;entryDx=0;entryDy=0;exitPerimeter=0;strokeColor=#808080;" parent="1" source="q3Mf1EkechfPd-j5QihB-43" target="q3Mf1EkechfPd-j5QihB-38" edge="1">
                    <mxGeometry width="50" height="50" relative="1" as="geometry">
                        <mxPoint x="338" y="302" as="sourcePoint"/>
                        <mxPoint x="388" y="252" as="targetPoint"/>
                    </mxGeometry>
                </mxCell>
                <mxCell id="q3Mf1EkechfPd-j5QihB-46" value="" style="endArrow=classic;html=1;rounded=0;fontSize=6;strokeColor=#808080;" parent="1" edge="1">
                    <mxGeometry width="50" height="50" relative="1" as="geometry">
                        <mxPoint x="328.9999999999999" y="346" as="sourcePoint"/>
                        <mxPoint x="328.9999999999999" y="376" as="targetPoint"/>
                    </mxGeometry>
                </mxCell>
                <mxCell id="q3Mf1EkechfPd-j5QihB-47" value="" style="rounded=1;whiteSpace=wrap;html=1;fontSize=6;fillColor=#E6E6E6;" parent="1" vertex="1">
                    <mxGeometry x="289.5" y="377" width="78" height="20" as="geometry"/>
                </mxCell>
                <mxCell id="q3Mf1EkechfPd-j5QihB-48" value="&lt;div&gt;&lt;div class=&quot;old-record-id-doxcni4OI2EckgIeqENAxdH95mh&quot;&gt;&lt;font color=&quot;#000000&quot;&gt;tmp.tmp_app_with_region&lt;/font&gt;&lt;/div&gt;&lt;/div&gt;" style="text;html=1;strokeColor=none;fillColor=none;align=center;verticalAlign=middle;whiteSpace=wrap;rounded=0;fontSize=6;" parent="1" vertex="1">
                    <mxGeometry x="283" y="372" width="89" height="30" as="geometry"/>
                </mxCell>
                <mxCell id="q3Mf1EkechfPd-j5QihB-49" value="" style="rounded=0;whiteSpace=wrap;html=1;fontSize=10;direction=west;fillColor=#CCE5FF;" parent="1" vertex="1">
                    <mxGeometry x="407" y="325.89" width="70" height="21.25" as="geometry"/>
                </mxCell>
                <mxCell id="q3Mf1EkechfPd-j5QihB-50" value="&lt;font size=&quot;1&quot;&gt;全局guid&lt;/font&gt;" style="text;html=1;strokeColor=#2D7600;fillColor=#333333;align=center;verticalAlign=middle;whiteSpace=wrap;rounded=0;fontSize=10;fontColor=#ffffff;" parent="1" vertex="1">
                    <mxGeometry x="409" y="320.51" width="66" height="30" as="geometry"/>
                </mxCell>
                <mxCell id="q3Mf1EkechfPd-j5QihB-51" value="" style="endArrow=classic;html=1;rounded=0;fontSize=6;exitX=0;exitY=0.5;exitDx=0;exitDy=0;entryX=1;entryY=0.5;entryDx=0;entryDy=0;strokeColor=#000000;" parent="1" target="q3Mf1EkechfPd-j5QihB-49" edge="1">
                    <mxGeometry width="50" height="50" relative="1" as="geometry">
                        <mxPoint x="367.0000000000002" y="336.515" as="sourcePoint"/>
                        <mxPoint x="498" y="253.01" as="targetPoint"/>
                    </mxGeometry>
                </mxCell>
                <mxCell id="q3Mf1EkechfPd-j5QihB-52" value="&lt;font color=&quot;#000000&quot;&gt;加载&lt;/font&gt;" style="text;html=1;strokeColor=none;fillColor=none;align=center;verticalAlign=middle;whiteSpace=wrap;rounded=0;fontSize=6;" parent="1" vertex="1">
                    <mxGeometry x="254" y="351.51" width="60" height="30" as="geometry"/>
                </mxCell>
                <mxCell id="q3Mf1EkechfPd-j5QihB-53" value="" style="endArrow=classic;html=1;rounded=0;fontSize=6;exitX=0.871;exitY=0.333;exitDx=0;exitDy=0;entryX=1;entryY=0;entryDx=0;entryDy=0;exitPerimeter=0;strokeColor=#808080;" parent="1" edge="1">
                    <mxGeometry width="50" height="50" relative="1" as="geometry">
                        <mxPoint x="366.999" y="380.99" as="sourcePoint"/>
                        <mxPoint x="405.98" y="345.13" as="targetPoint"/>
                    </mxGeometry>
                </mxCell>
                <mxCell id="q3Mf1EkechfPd-j5QihB-54" value="&lt;font color=&quot;#000000&quot;&gt;加载&lt;/font&gt;" style="text;html=1;strokeColor=none;fillColor=none;align=center;verticalAlign=middle;whiteSpace=wrap;rounded=0;fontSize=6;" parent="1" vertex="1">
                    <mxGeometry x="359" y="356" width="60" height="30" as="geometry"/>
                </mxCell>
                <mxCell id="q3Mf1EkechfPd-j5QihB-55" value="" style="ellipse;whiteSpace=wrap;html=1;fontSize=6;" parent="1" vertex="1">
                    <mxGeometry x="508" y="314.01" width="90" height="45" as="geometry"/>
                </mxCell>
                <mxCell id="q3Mf1EkechfPd-j5QihB-56" value="&lt;font style=&quot;font-size: 10px;&quot;&gt;DWD明细层&lt;/font&gt;" style="text;html=1;strokeColor=none;fillColor=none;align=center;verticalAlign=middle;whiteSpace=wrap;rounded=0;fontSize=6;" parent="1" vertex="1">
                    <mxGeometry x="523" y="320.5" width="60" height="30" as="geometry"/>
                </mxCell>
                <mxCell id="q3Mf1EkechfPd-j5QihB-60" value="" style="endArrow=classic;html=1;rounded=0;fontSize=6;exitX=0;exitY=0.5;exitDx=0;exitDy=0;strokeColor=#000000;" parent="1" edge="1">
                    <mxGeometry width="50" height="50" relative="1" as="geometry">
                        <mxPoint x="477.0000000000002" y="336.275" as="sourcePoint"/>
                        <mxPoint x="508" y="336" as="targetPoint"/>
                    </mxGeometry>
                </mxCell>
                <mxCell id="q3Mf1EkechfPd-j5QihB-61" value="&lt;div data-docx-has-block-data=&quot;false&quot; data-page-id=&quot;doxcn5RJjSX3RN7HkkpO0s13Ouc&quot;&gt;&lt;div class=&quot;old-record-id-doxcny48aggQ4CyUcCrwskY5mib&quot;&gt;dwd.cool_app_log_dtl&lt;/div&gt;&lt;/div&gt;" style="text;html=1;strokeColor=none;fillColor=none;align=center;verticalAlign=middle;whiteSpace=wrap;rounded=0;fontSize=6;" parent="1" vertex="1">
                    <mxGeometry x="523" y="331" width="60" height="30" as="geometry"/>
                </mxCell>
                <mxCell id="q3Mf1EkechfPd-j5QihB-63" value="&lt;font color=&quot;#000000&quot;&gt;规范处理&lt;/font&gt;" style="text;html=1;strokeColor=none;fillColor=none;align=center;verticalAlign=middle;whiteSpace=wrap;rounded=0;fontSize=6;" parent="1" vertex="1">
                    <mxGeometry x="242" y="315.13" width="60" height="30" as="geometry"/>
                </mxCell>
                <mxCell id="5" value="&lt;b&gt;报表开发流程&lt;/b&gt;" style="text;html=1;strokeColor=none;fillColor=none;align=center;verticalAlign=middle;whiteSpace=wrap;rounded=0;fontColor=#000000;" vertex="1" parent="1">
                    <mxGeometry x="277" y="460" width="110" height="30" as="geometry"/>
                </mxCell>
                <mxCell id="33" value="&lt;font color=&quot;#000000&quot;&gt;确定业务&lt;/font&gt;" style="rounded=0;whiteSpace=wrap;html=1;strokeColor=#6c8ebf;fillColor=#dae8fc;" vertex="1" parent="1">
                    <mxGeometry x="40" y="520" width="90" height="40" as="geometry"/>
                </mxCell>
                <mxCell id="34" value="" style="endArrow=classic;html=1;fontColor=#000000;strokeColor=#000000;" edge="1" parent="1" target="35">
                    <mxGeometry width="50" height="50" relative="1" as="geometry">
                        <mxPoint x="130" y="540" as="sourcePoint"/>
                        <mxPoint x="440" y="440" as="targetPoint"/>
                    </mxGeometry>
                </mxCell>
                <mxCell id="35" value="&lt;font color=&quot;#000000&quot;&gt;确定粒度(度量)&lt;/font&gt;" style="rounded=0;whiteSpace=wrap;html=1;strokeColor=#6c8ebf;fillColor=#dae8fc;" vertex="1" parent="1">
                    <mxGeometry x="180" y="520" width="90" height="40" as="geometry"/>
                </mxCell>
                <mxCell id="36" value="&lt;font color=&quot;#000000&quot;&gt;确定维度&lt;/font&gt;" style="rounded=0;whiteSpace=wrap;html=1;strokeColor=#6c8ebf;fillColor=#dae8fc;" vertex="1" parent="1">
                    <mxGeometry x="320" y="520" width="90" height="40" as="geometry"/>
                </mxCell>
                <mxCell id="37" value="&lt;font color=&quot;#000000&quot;&gt;确定事实&lt;/font&gt;" style="rounded=0;whiteSpace=wrap;html=1;strokeColor=#6c8ebf;fillColor=#dae8fc;" vertex="1" parent="1">
                    <mxGeometry x="460" y="520" width="90" height="40" as="geometry"/>
                </mxCell>
                <mxCell id="38" value="" style="endArrow=classic;html=1;fontColor=#000000;strokeColor=#000000;" edge="1" parent="1">
                    <mxGeometry width="50" height="50" relative="1" as="geometry">
                        <mxPoint x="270.0000000000001" y="539.86" as="sourcePoint"/>
                        <mxPoint x="320.0000000000001" y="539.86" as="targetPoint"/>
                    </mxGeometry>
                </mxCell>
                <mxCell id="39" value="" style="endArrow=classic;html=1;fontColor=#000000;strokeColor=#000000;" edge="1" parent="1">
                    <mxGeometry width="50" height="50" relative="1" as="geometry">
                        <mxPoint x="410.0000000000001" y="539.86" as="sourcePoint"/>
                        <mxPoint x="460.0000000000001" y="539.86" as="targetPoint"/>
                    </mxGeometry>
                </mxCell>
                <mxCell id="40" value="&lt;font color=&quot;#000000&quot;&gt;报表开发&lt;/font&gt;" style="rounded=0;whiteSpace=wrap;html=1;strokeColor=#6c8ebf;fillColor=#dae8fc;" vertex="1" parent="1">
                    <mxGeometry x="600" y="520" width="90" height="40" as="geometry"/>
                </mxCell>
                <mxCell id="41" value="" style="endArrow=classic;html=1;fontColor=#000000;strokeColor=#000000;" edge="1" parent="1">
                    <mxGeometry width="50" height="50" relative="1" as="geometry">
                        <mxPoint x="550" y="539.86" as="sourcePoint"/>
                        <mxPoint x="600" y="539.86" as="targetPoint"/>
                    </mxGeometry>
                </mxCell>
                <mxCell id="51" value="&lt;span style=&quot;color: rgb(51 , 51 , 51)&quot;&gt;维度表的设计：提前构建维度表(dim_xxx)；&lt;/span&gt;&lt;br style=&quot;color: rgb(51 , 51 , 51)&quot;&gt;&lt;span style=&quot;color: rgb(51 , 51 , 51)&quot;&gt;中间表的开发：进行轻度汇总(dws_xxx)，保存中间结果；&lt;br&gt;宽表开发：基于DWD明细数据与中间表，整合汇总成分析某一个主题域的服务数据（dws）。&lt;br&gt;&lt;/span&gt;" style="text;html=1;strokeColor=#666666;fillColor=#f5f5f5;align=left;verticalAlign=middle;whiteSpace=wrap;rounded=1;fontSize=8;fontColor=#333333;" vertex="1" parent="1">
                    <mxGeometry x="324.5" y="590" width="213" height="45" as="geometry"/>
                </mxCell>
                <mxCell id="52" value="报表开发：根据中心事实表进行维度建模，中心事实表与维度表关联。" style="text;html=1;strokeColor=#666666;fillColor=#f5f5f5;align=left;verticalAlign=middle;whiteSpace=wrap;rounded=1;fontSize=8;fontColor=#333333;" vertex="1" parent="1">
                    <mxGeometry x="500" y="445" width="157" height="45" as="geometry"/>
                </mxCell>
                <mxCell id="53" value="DWD---&amp;gt;DWS" style="text;html=1;strokeColor=none;fillColor=none;align=center;verticalAlign=middle;whiteSpace=wrap;rounded=0;fontSize=8;fontColor=#000000;" vertex="1" parent="1">
                    <mxGeometry x="321" y="568" width="60" height="30" as="geometry"/>
                </mxCell>
                <mxCell id="55" value="" style="endArrow=classic;startArrow=classic;html=1;fontSize=8;fontColor=#000000;exitX=0.48;exitY=-0.019;exitDx=0;exitDy=0;exitPerimeter=0;strokeColor=#333333;" edge="1" parent="1" source="51">
                    <mxGeometry width="50" height="50" relative="1" as="geometry">
                        <mxPoint x="540" y="620" as="sourcePoint"/>
                        <mxPoint x="427" y="540" as="targetPoint"/>
                    </mxGeometry>
                </mxCell>
                <mxCell id="56" value="" style="endArrow=classic;startArrow=classic;html=1;fontSize=8;fontColor=#000000;exitX=0.48;exitY=-0.019;exitDx=0;exitDy=0;exitPerimeter=0;strokeColor=#333333;" edge="1" parent="1">
                    <mxGeometry width="50" height="50" relative="1" as="geometry">
                        <mxPoint x="570" y="539.1450000000001" as="sourcePoint"/>
                        <mxPoint x="570.26" y="490" as="targetPoint"/>
                    </mxGeometry>
                </mxCell>
                <mxCell id="74" value="" style="shape=table;html=1;whiteSpace=wrap;startSize=0;container=1;collapsible=0;childLayout=tableLayout;rounded=1;fontSize=8;strokeColor=#9673a6;fillColor=#e1d5e7;" vertex="1" parent="1">
                    <mxGeometry x="39" y="718.74" width="120" height="50" as="geometry"/>
                </mxCell>
                <mxCell id="75" value="" style="shape=partialRectangle;html=1;whiteSpace=wrap;collapsible=0;dropTarget=0;pointerEvents=0;fillColor=none;top=0;left=0;bottom=0;right=0;points=[[0,0.5],[1,0.5]];portConstraint=eastwest;rounded=1;fontSize=8;fontColor=#000000;strokeColor=#000000;" vertex="1" parent="74">
                    <mxGeometry width="120" height="24" as="geometry"/>
                </mxCell>
                <mxCell id="76" value="key" style="shape=partialRectangle;html=1;whiteSpace=wrap;connectable=0;fillColor=none;top=0;left=0;bottom=0;right=0;overflow=hidden;pointerEvents=1;rounded=1;fontSize=8;fontColor=#000000;strokeColor=#000000;" vertex="1" parent="75">
                    <mxGeometry width="40" height="24" as="geometry">
                        <mxRectangle width="40" height="24" as="alternateBounds"/>
                    </mxGeometry>
                </mxCell>
                <mxCell id="77" value="c1" style="shape=partialRectangle;html=1;whiteSpace=wrap;connectable=0;fillColor=none;top=0;left=0;bottom=0;right=0;overflow=hidden;pointerEvents=1;rounded=1;fontSize=8;fontColor=#000000;strokeColor=#000000;" vertex="1" parent="75">
                    <mxGeometry x="40" width="40" height="24" as="geometry">
                        <mxRectangle width="40" height="24" as="alternateBounds"/>
                    </mxGeometry>
                </mxCell>
                <mxCell id="78" value="c2" style="shape=partialRectangle;html=1;whiteSpace=wrap;connectable=0;fillColor=none;top=0;left=0;bottom=0;right=0;overflow=hidden;pointerEvents=1;rounded=1;fontSize=8;fontColor=#000000;strokeColor=#000000;" vertex="1" parent="75">
                    <mxGeometry x="80" width="40" height="24" as="geometry">
                        <mxRectangle width="40" height="24" as="alternateBounds"/>
                    </mxGeometry>
                </mxCell>
                <mxCell id="83" value="" style="shape=partialRectangle;html=1;whiteSpace=wrap;collapsible=0;dropTarget=0;pointerEvents=0;fillColor=none;top=0;left=0;bottom=0;right=0;points=[[0,0.5],[1,0.5]];portConstraint=eastwest;rounded=1;fontSize=8;fontColor=#000000;strokeColor=#000000;" vertex="1" parent="74">
                    <mxGeometry y="24" width="120" height="26" as="geometry"/>
                </mxCell>
                <mxCell id="84" value="k1" style="shape=partialRectangle;html=1;whiteSpace=wrap;connectable=0;fillColor=none;top=0;left=0;bottom=0;right=0;overflow=hidden;pointerEvents=1;rounded=1;fontSize=8;fontColor=#000000;strokeColor=#000000;" vertex="1" parent="83">
                    <mxGeometry width="40" height="26" as="geometry">
                        <mxRectangle width="40" height="26" as="alternateBounds"/>
                    </mxGeometry>
                </mxCell>
                <mxCell id="85" value="v1" style="shape=partialRectangle;html=1;whiteSpace=wrap;connectable=0;fillColor=none;top=0;left=0;bottom=0;right=0;overflow=hidden;pointerEvents=1;rounded=1;fontSize=8;fontColor=#000000;strokeColor=#000000;" vertex="1" parent="83">
                    <mxGeometry x="40" width="40" height="26" as="geometry">
                        <mxRectangle width="40" height="26" as="alternateBounds"/>
                    </mxGeometry>
                </mxCell>
                <mxCell id="86" value="v2" style="shape=partialRectangle;html=1;whiteSpace=wrap;connectable=0;fillColor=none;top=0;left=0;bottom=0;right=0;overflow=hidden;pointerEvents=1;rounded=1;fontSize=8;fontColor=#000000;strokeColor=#000000;" vertex="1" parent="83">
                    <mxGeometry x="80" width="40" height="26" as="geometry">
                        <mxRectangle width="40" height="26" as="alternateBounds"/>
                    </mxGeometry>
                </mxCell>
                <mxCell id="87" value="" style="shape=table;html=1;whiteSpace=wrap;startSize=0;container=1;collapsible=0;childLayout=tableLayout;columnLines=0;rowLines=0;rounded=0;fontSize=8;strokeColor=#82b366;fillColor=#d5e8d4;" vertex="1" parent="1">
                    <mxGeometry x="199" y="650" width="110" height="45.74" as="geometry"/>
                </mxCell>
                <mxCell id="88" value="" style="shape=partialRectangle;html=1;whiteSpace=wrap;collapsible=0;dropTarget=0;pointerEvents=0;fillColor=none;top=0;left=0;bottom=0;right=0;points=[[0,0.5],[1,0.5]];portConstraint=eastwest;rounded=1;fontSize=8;fontColor=#000000;strokeColor=#000000;" vertex="1" parent="87">
                    <mxGeometry width="110" height="25" as="geometry"/>
                </mxCell>
                <mxCell id="89" value="key" style="shape=partialRectangle;html=1;whiteSpace=wrap;connectable=0;fillColor=none;top=0;left=0;bottom=0;right=0;overflow=hidden;pointerEvents=1;rounded=1;fontSize=8;fontColor=#000000;strokeColor=#000000;" vertex="1" parent="88">
                    <mxGeometry width="37" height="25" as="geometry">
                        <mxRectangle width="37" height="25" as="alternateBounds"/>
                    </mxGeometry>
                </mxCell>
                <mxCell id="90" value="Value 2" style="shape=partialRectangle;html=1;whiteSpace=wrap;connectable=0;fillColor=none;top=0;left=0;bottom=0;right=0;overflow=hidden;pointerEvents=1;rounded=1;fontSize=8;fontColor=#000000;strokeColor=#000000;" vertex="1" parent="88">
                    <mxGeometry x="37" width="36" height="25" as="geometry">
                        <mxRectangle width="36" height="25" as="alternateBounds"/>
                    </mxGeometry>
                </mxCell>
                <mxCell id="91" value="Value 3" style="shape=partialRectangle;html=1;whiteSpace=wrap;connectable=0;fillColor=none;top=0;left=0;bottom=0;right=0;overflow=hidden;pointerEvents=1;rounded=1;fontSize=8;fontColor=#000000;strokeColor=#000000;" vertex="1" parent="88">
                    <mxGeometry x="73" width="37" height="25" as="geometry">
                        <mxRectangle width="37" height="25" as="alternateBounds"/>
                    </mxGeometry>
                </mxCell>
                <mxCell id="92" value="" style="shape=partialRectangle;html=1;whiteSpace=wrap;collapsible=0;dropTarget=0;pointerEvents=0;fillColor=none;top=0;left=0;bottom=0;right=0;points=[[0,0.5],[1,0.5]];portConstraint=eastwest;rounded=1;fontSize=8;fontColor=#000000;strokeColor=#000000;" vertex="1" parent="87">
                    <mxGeometry y="25" width="110" height="21" as="geometry"/>
                </mxCell>
                <mxCell id="93" value="k1" style="shape=partialRectangle;html=1;whiteSpace=wrap;connectable=0;fillColor=none;top=0;left=0;bottom=0;right=0;overflow=hidden;pointerEvents=1;rounded=1;fontSize=8;fontColor=#000000;strokeColor=#000000;" vertex="1" parent="92">
                    <mxGeometry width="37" height="21" as="geometry">
                        <mxRectangle width="37" height="21" as="alternateBounds"/>
                    </mxGeometry>
                </mxCell>
                <mxCell id="94" value="v" style="shape=partialRectangle;html=1;whiteSpace=wrap;connectable=0;fillColor=none;top=0;left=0;bottom=0;right=0;overflow=hidden;pointerEvents=1;rounded=1;fontSize=8;fontColor=#000000;strokeColor=#000000;" vertex="1" parent="92">
                    <mxGeometry x="37" width="36" height="21" as="geometry">
                        <mxRectangle width="36" height="21" as="alternateBounds"/>
                    </mxGeometry>
                </mxCell>
                <mxCell id="95" value="v" style="shape=partialRectangle;html=1;whiteSpace=wrap;connectable=0;fillColor=none;top=0;left=0;bottom=0;right=0;overflow=hidden;pointerEvents=1;rounded=1;fontSize=8;fontColor=#000000;strokeColor=#000000;" vertex="1" parent="92">
                    <mxGeometry x="73" width="37" height="21" as="geometry">
                        <mxRectangle width="37" height="21" as="alternateBounds"/>
                    </mxGeometry>
                </mxCell>
                <mxCell id="100" value="" style="shape=table;html=1;whiteSpace=wrap;startSize=0;container=1;collapsible=0;childLayout=tableLayout;columnLines=0;rowLines=0;rounded=0;fontSize=8;strokeColor=#82b366;fillColor=#d5e8d4;" vertex="1" parent="1">
                    <mxGeometry x="199" y="790" width="110" height="45.74" as="geometry"/>
                </mxCell>
                <mxCell id="101" value="" style="shape=partialRectangle;html=1;whiteSpace=wrap;collapsible=0;dropTarget=0;pointerEvents=0;fillColor=none;top=0;left=0;bottom=0;right=0;points=[[0,0.5],[1,0.5]];portConstraint=eastwest;rounded=1;fontSize=8;fontColor=#000000;strokeColor=#000000;" vertex="1" parent="100">
                    <mxGeometry width="110" height="25" as="geometry"/>
                </mxCell>
                <mxCell id="102" value="key" style="shape=partialRectangle;html=1;whiteSpace=wrap;connectable=0;fillColor=none;top=0;left=0;bottom=0;right=0;overflow=hidden;pointerEvents=1;rounded=1;fontSize=8;fontColor=#000000;strokeColor=#000000;" vertex="1" parent="101">
                    <mxGeometry width="37" height="25" as="geometry">
                        <mxRectangle width="37" height="25" as="alternateBounds"/>
                    </mxGeometry>
                </mxCell>
                <mxCell id="103" value="Value 2" style="shape=partialRectangle;html=1;whiteSpace=wrap;connectable=0;fillColor=none;top=0;left=0;bottom=0;right=0;overflow=hidden;pointerEvents=1;rounded=1;fontSize=8;fontColor=#000000;strokeColor=#000000;" vertex="1" parent="101">
                    <mxGeometry x="37" width="36" height="25" as="geometry">
                        <mxRectangle width="36" height="25" as="alternateBounds"/>
                    </mxGeometry>
                </mxCell>
                <mxCell id="104" value="Value 3" style="shape=partialRectangle;html=1;whiteSpace=wrap;connectable=0;fillColor=none;top=0;left=0;bottom=0;right=0;overflow=hidden;pointerEvents=1;rounded=1;fontSize=8;fontColor=#000000;strokeColor=#000000;" vertex="1" parent="101">
                    <mxGeometry x="73" width="37" height="25" as="geometry">
                        <mxRectangle width="37" height="25" as="alternateBounds"/>
                    </mxGeometry>
                </mxCell>
                <mxCell id="105" value="" style="shape=partialRectangle;html=1;whiteSpace=wrap;collapsible=0;dropTarget=0;pointerEvents=0;fillColor=none;top=0;left=0;bottom=0;right=0;points=[[0,0.5],[1,0.5]];portConstraint=eastwest;rounded=1;fontSize=8;fontColor=#000000;strokeColor=#000000;" vertex="1" parent="100">
                    <mxGeometry y="25" width="110" height="21" as="geometry"/>
                </mxCell>
                <mxCell id="106" value="k1" style="shape=partialRectangle;html=1;whiteSpace=wrap;connectable=0;fillColor=none;top=0;left=0;bottom=0;right=0;overflow=hidden;pointerEvents=1;rounded=1;fontSize=8;fontColor=#000000;strokeColor=#000000;" vertex="1" parent="105">
                    <mxGeometry width="37" height="21" as="geometry">
                        <mxRectangle width="37" height="21" as="alternateBounds"/>
                    </mxGeometry>
                </mxCell>
                <mxCell id="107" value="v" style="shape=partialRectangle;html=1;whiteSpace=wrap;connectable=0;fillColor=none;top=0;left=0;bottom=0;right=0;overflow=hidden;pointerEvents=1;rounded=1;fontSize=8;fontColor=#000000;strokeColor=#000000;" vertex="1" parent="105">
                    <mxGeometry x="37" width="36" height="21" as="geometry">
                        <mxRectangle width="36" height="21" as="alternateBounds"/>
                    </mxGeometry>
                </mxCell>
                <mxCell id="108" value="v" style="shape=partialRectangle;html=1;whiteSpace=wrap;connectable=0;fillColor=none;top=0;left=0;bottom=0;right=0;overflow=hidden;pointerEvents=1;rounded=1;fontSize=8;fontColor=#000000;strokeColor=#000000;" vertex="1" parent="105">
                    <mxGeometry x="73" width="37" height="21" as="geometry">
                        <mxRectangle width="37" height="21" as="alternateBounds"/>
                    </mxGeometry>
                </mxCell>
                <mxCell id="109" value="" style="endArrow=classic;html=1;fontSize=8;fontColor=#000000;strokeColor=#333333;exitX=0.994;exitY=0.153;exitDx=0;exitDy=0;exitPerimeter=0;entryX=0.019;entryY=1.057;entryDx=0;entryDy=0;entryPerimeter=0;" edge="1" parent="1" source="75" target="92">
                    <mxGeometry width="50" height="50" relative="1" as="geometry">
                        <mxPoint x="230" y="760" as="sourcePoint"/>
                        <mxPoint x="280" y="710" as="targetPoint"/>
                    </mxGeometry>
                </mxCell>
                <mxCell id="110" value="" style="endArrow=classic;html=1;fontSize=8;fontColor=#000000;strokeColor=#333333;entryX=-0.011;entryY=0.176;entryDx=0;entryDy=0;entryPerimeter=0;exitX=0.974;exitY=1.064;exitDx=0;exitDy=0;exitPerimeter=0;" edge="1" parent="1">
                    <mxGeometry width="50" height="50" relative="1" as="geometry">
                        <mxPoint x="157.88" y="766.4040000000002" as="sourcePoint"/>
                        <mxPoint x="199.78999999999996" y="790.3999999999999" as="targetPoint"/>
                    </mxGeometry>
                </mxCell>
                <mxCell id="112" value="join" style="text;html=1;strokeColor=none;fillColor=none;align=center;verticalAlign=middle;whiteSpace=wrap;rounded=0;fontSize=8;fontColor=#000000;" vertex="1" parent="1">
                    <mxGeometry x="152" y="704" width="60" height="30" as="geometry"/>
                </mxCell>
                <mxCell id="113" value="join" style="text;html=1;strokeColor=none;fillColor=none;align=center;verticalAlign=middle;whiteSpace=wrap;rounded=0;fontSize=8;fontColor=#000000;" vertex="1" parent="1">
                    <mxGeometry x="150" y="753" width="60" height="30" as="geometry"/>
                </mxCell>
                <mxCell id="114" value="中心事实表" style="text;html=1;strokeColor=none;fillColor=none;align=center;verticalAlign=middle;whiteSpace=wrap;rounded=0;fontSize=8;fontColor=#000000;" vertex="1" parent="1">
                    <mxGeometry x="68" y="695.74" width="60" height="30" as="geometry"/>
                </mxCell>
                <mxCell id="115" value="维度表1" style="text;html=1;strokeColor=none;fillColor=none;align=center;verticalAlign=middle;whiteSpace=wrap;rounded=0;fontSize=8;fontColor=#000000;" vertex="1" parent="1">
                    <mxGeometry x="220" y="630" width="60" height="30" as="geometry"/>
                </mxCell>
                <mxCell id="117" value="维度表2" style="text;html=1;strokeColor=none;fillColor=none;align=center;verticalAlign=middle;whiteSpace=wrap;rounded=0;fontSize=8;fontColor=#000000;" vertex="1" parent="1">
                    <mxGeometry x="223" y="767.74" width="60" height="30" as="geometry"/>
                </mxCell>
                <mxCell id="119" value="&lt;font style=&quot;font-size: 18px&quot;&gt;维度建模-星型模型&lt;/font&gt;" style="text;strokeColor=none;fillColor=none;html=1;fontSize=24;fontStyle=1;verticalAlign=middle;align=center;rounded=0;fontColor=#000000;" vertex="1" parent="1">
                    <mxGeometry x="59" y="797.74" width="100" height="40" as="geometry"/>
                </mxCell>
            </root>
        </mxGraphModel>
    </diagram>
</mxfile>